<?xml version="1.0" standalone="no"?>
<!DOCTYPE svg PUBLIC "-//W3C//DTD SVG 20010904//EN"
 "http://www.w3.org/TR/2001/REC-SVG-20010904/DTD/svg10.dtd">
<svg version="1.0" xmlns="http://www.w3.org/2000/svg"
 width="50.000000pt" height="50.000000pt" viewBox="0 0 50.000000 50.000000"
 preserveAspectRatio="xMidYMid meet">
<metadata>
Created by potrace 1.16, written by Peter Selinger 2001-2019
</metadata>
<g transform="translate(0.000000,50.000000) scale(0.100000,-0.100000)"
fill="#000000" stroke="none">
<path d="M220 464 c0 -9 9 -29 21 -45 l20 -29 -95 0 -96 0 0 -185 0 -185 165
0 165 0 0 75 c0 60 3 75 15 75 11 0 15 11 15 40 l0 40 -75 0 c-41 0 -75 2 -75
5 0 2 5 15 11 29 10 21 20 26 58 28 39 3 46 6 49 26 3 17 -2 22 -18 22 -12 0
-28 -7 -37 -15 -19 -20 -24 -16 -17 12 5 18 15 23 53 25 39 3 46 6 49 26 3 17
-2 22 -18 22 -12 0 -28 -7 -36 -15 -24 -24 -38 -17 -20 10 31 48 23 55 -59 55
-62 0 -75 -3 -75 -16z m110 -13 c0 -19 -31 -35 -48 -25 -30 20 -25 34 12 34
20 0 36 -4 36 -9z m-20 -58 c-1 -5 -7 -19 -15 -33 l-14 -25 -1 33 c0 22 5 32
15 32 8 0 15 -3 15 -7z m-50 -123 l0 -100 60 0 60 0 0 -65 0 -65 -145 0 -145
0 0 165 0 165 85 0 85 0 0 -100z m150 -60 c0 -18 -7 -20 -65 -20 -58 0 -65 2
-65 20 0 18 7 20 65 20 58 0 65 -2 65 -20z"/>
<path d="M120 220 c0 -5 5 -10 10 -10 6 0 10 5 10 10 0 6 -4 10 -10 10 -5 0
-10 -4 -10 -10z"/>
<path d="M150 220 c0 -5 5 -10 10 -10 6 0 10 5 10 10 0 6 -4 10 -10 10 -5 0
-10 -4 -10 -10z"/>
<path d="M180 220 c0 -5 5 -10 10 -10 6 0 10 5 10 10 0 6 -4 10 -10 10 -5 0
-10 -4 -10 -10z"/>
<path d="M210 220 c0 -5 5 -10 10 -10 6 0 10 5 10 10 0 6 -4 10 -10 10 -5 0
-10 -4 -10 -10z"/>
<path d="M120 190 c0 -5 11 -10 25 -10 14 0 25 5 25 10 0 6 -11 10 -25 10 -14
0 -25 -4 -25 -10z"/>
<path d="M180 190 c0 -5 11 -10 25 -10 14 0 25 5 25 10 0 6 -11 10 -25 10 -14
0 -25 -4 -25 -10z"/>
<path d="M110 90 c0 -27 3 -30 30 -30 27 0 30 3 30 30 0 27 -3 30 -30 30 -27
0 -30 -3 -30 -30z"/>
</g>
</svg>
