<?xml version="1.0" standalone="no"?>
<!DOCTYPE svg PUBLIC "-//W3C//DTD SVG 20010904//EN"
 "http://www.w3.org/TR/2001/REC-SVG-20010904/DTD/svg10.dtd">
<svg version="1.0" xmlns="http://www.w3.org/2000/svg"
 width="96.000000pt" height="96.000000pt" viewBox="0 0 96.000000 96.000000"
 preserveAspectRatio="xMidYMid meet">
<metadata>
Created by potrace 1.16, written by Peter Selinger 2001-2019
</metadata>
<g transform="translate(0.000000,96.000000) scale(0.100000,-0.100000)"
fill="#000000" stroke="none">
<path d="M447 855 l-27 -55 -62 0 -62 0 48 -49 47 -48 -16 -63 c-9 -34 -15
-64 -13 -66 2 -2 30 12 61 31 l57 34 57 -34 c31 -19 59 -33 61 -31 2 2 -4 32
-13 66 l-16 63 47 48 48 49 -62 0 -62 0 -27 55 c-15 30 -30 55 -33 55 -3 0
-18 -25 -33 -55z m47 -80 c3 -8 15 -15 27 -15 21 0 21 -1 5 -19 -12 -13 -15
-27 -11 -41 6 -20 5 -21 -14 -11 -16 9 -26 9 -42 0 -19 -10 -20 -9 -14 11 4
14 1 28 -11 41 -16 18 -16 19 5 19 12 0 24 7 27 15 4 8 10 15 14 15 4 0 10 -7
14 -15z"/>
<path d="M360 440 l0 -80 -100 0 -100 0 0 -140 0 -140 320 0 320 0 0 180 0
180 -100 0 -100 0 0 40 0 40 -120 0 -120 0 0 -80z m200 -140 l0 -180 -80 0
-80 0 0 180 0 180 80 0 80 0 0 -180z m200 -40 l0 -140 -80 0 -80 0 0 140 0
140 80 0 80 0 0 -140z m-400 -40 l0 -100 -80 0 -80 0 0 100 0 100 80 0 80 0 0
-100z"/>
</g>
</svg>
